<svg width="265" height="265" viewBox="0 0 265 265" fill="none" xmlns="http://www.w3.org/2000/svg">
<path d="M132.582 253.107C199.352 253.107 253.48 198.979 253.48 132.209C253.48 65.439 199.352 11.311 132.582 11.311C65.8115 11.311 11.6836 65.439 11.6836 132.209C11.6836 198.979 65.8115 253.107 132.582 253.107Z" fill="#F3F3F3"/>
<mask id="mask0_807_1884" style="mask-type:luminance" maskUnits="userSpaceOnUse" x="11" y="11" width="243" height="243">
<path d="M132.5 253.689C199.43 253.689 253.689 199.431 253.689 132.5C253.689 65.5692 199.43 11.311 132.5 11.311C65.5687 11.311 11.3105 65.5692 11.3105 132.5C11.3105 199.431 65.5687 253.689 132.5 253.689Z" fill="white"/>
</mask>
<g mask="url(#mask0_807_1884)">
<mask id="mask1_807_1884" style="mask-type:alpha" maskUnits="userSpaceOnUse" x="107" y="141" width="54" height="53">
<path d="M109.221 142.287C111.118 150.032 113.775 167.114 109.221 173.474C103.659 181.244 114.158 193.102 133.474 193.636V193.655C133.702 193.655 133.929 193.653 134.154 193.65C134.379 193.653 134.606 193.655 134.834 193.655V193.636C154.15 193.102 164.649 181.244 159.087 173.474C154.533 167.114 157.19 150.032 159.087 142.287L134.154 147.049L109.221 142.287Z" fill="#FBEBE4" stroke="black" stroke-width="0.5" stroke-linecap="round"/>
</mask>
<g mask="url(#mask1_807_1884)">
<path d="M109.221 142.287C111.118 150.032 113.775 167.114 109.221 173.474C103.659 181.244 114.158 193.102 133.474 193.636V193.655C133.702 193.655 133.929 193.653 134.154 193.65C134.379 193.653 134.606 193.655 134.834 193.655V193.636C154.15 193.102 164.649 181.244 159.087 173.474C154.533 167.114 157.19 150.032 159.087 142.287L134.154 147.049L109.221 142.287Z" fill="#FBEBE4" stroke="black" stroke-width="0.5" stroke-linecap="round"/>
<path d="M108.305 167.172C128.842 175.62 146.599 158.918 152.911 149.511L107.395 143.321L108.305 167.172Z" fill="black"/>
<path d="M109.221 142.287C111.118 150.032 113.775 167.114 109.221 173.474C103.659 181.244 114.158 193.102 133.474 193.636V193.655C133.702 193.655 133.929 193.653 134.154 193.65C134.379 193.653 134.606 193.655 134.834 193.655V193.636C154.15 193.102 164.649 181.244 159.087 173.474C154.533 167.114 157.19 150.032 159.087 142.287L134.154 147.049L109.221 142.287Z" stroke="black" stroke-width="0.5" stroke-linecap="round"/>
</g>
<mask id="mask2_807_1884" style="mask-type:alpha" maskUnits="userSpaceOnUse" x="30" y="176" width="209" height="95">
<path d="M103.885 176.549C101.359 179.278 93.0914 184.856 80.2357 185.342C64.1661 185.948 33.5428 196.56 30.5107 249.317L134.321 269.848L238.131 249.317C235.099 196.56 204.476 185.948 188.406 185.342C175.55 184.856 167.283 179.278 164.756 176.549L134.321 196.083L103.885 176.549Z" fill="#86D993" stroke="black" stroke-width="0.5"/>
</mask>
<g mask="url(#mask2_807_1884)">
<path d="M75.92 176.549C74.3563 178.238 69.2399 181.69 61.2839 181.99C51.3389 182.366 32.3872 188.933 30.5107 221.583L94.7555 235.289L159 221.583C157.124 188.933 138.172 182.366 128.227 181.99C120.271 181.69 115.155 178.238 113.591 176.549L94.7555 188.638L75.92 176.549Z" fill="#2B84B3" stroke="black" stroke-width="0.5"/>
<path d="M79.8281 176.274C82.9256 188.32 89.2916 214.476 108.221 214.476H153.163C171.817 214.476 182.293 224.705 182.293 243.606V260.505" stroke="white" stroke-width="6" stroke-linecap="round"/>
<path d="M103.885 176.549C101.359 179.278 93.0914 184.856 80.2357 185.342C64.1661 185.948 33.5428 196.56 30.5107 249.317L134.321 265.808L238.131 249.317C235.099 196.56 204.476 185.948 188.406 185.342C175.55 184.856 167.283 179.278 164.756 176.549L134.321 196.083L103.885 176.549Z" stroke="black" stroke-width="0.5"/>
<path d="M66.4648 219.17C68.1127 227.951 69.454 236.472 69.9273 247.201" stroke="black" stroke-width="0.5" stroke-linecap="round"/>
<path d="M201.682 219.17C200.034 227.951 198.693 236.472 198.219 247.201" stroke="black" stroke-width="0.5" stroke-linecap="round"/>
</g>
<path d="M156.083 176.748C157 173.491 160.363 171.56 163.647 172.426C166.965 173.3 168.945 176.697 168.072 180.015C168.008 180.249 167.836 180.829 167.665 181.267L167.664 181.27C167.427 181.906 167.074 182.746 166.57 183.719C165.563 185.663 163.934 188.171 161.387 190.651C156.158 195.742 147.614 200.178 134.253 200.178C120.892 200.178 112.348 195.742 107.119 190.651C104.572 188.171 102.943 185.663 101.936 183.719C101.431 182.746 101.08 181.906 100.843 181.27L100.841 181.266C100.663 180.813 100.496 180.245 100.435 180.017C99.56 176.699 101.541 173.3 104.859 172.426C108.041 171.587 111.297 173.374 112.33 176.447L112.423 176.748L112.426 176.758C112.435 176.785 112.455 176.845 112.487 176.932C112.567 177.145 112.72 177.519 112.97 178.002C113.471 178.969 114.348 180.344 115.788 181.747C118.535 184.421 123.897 187.751 134.253 187.751C144.609 187.751 149.971 184.421 152.718 181.747C154.158 180.345 155.035 178.969 155.536 178.002C155.786 177.519 155.94 177.145 156.02 176.932C156.052 176.845 156.071 176.785 156.08 176.758L156.083 176.748Z" fill="#2B84B3" stroke="black" stroke-width="0.5" stroke-linecap="round"/>
<path d="M91.3808 97.0226C92.9252 94.7576 97.2579 96.6795 99.2312 97.9236L102.062 121.346C97.9442 124.563 93.5686 113.881 91.3808 110.535C89.193 107.189 89.4503 99.8538 91.3808 97.0226Z" fill="#FBEBE4" stroke="black" stroke-width="0.5"/>
<path d="M99.5595 102.75C98.3252 101.449 95.5564 99.0069 94.3555 99.6475C92.8544 100.448 92.0538 102.95 92.4541 104.751" stroke="black" stroke-width="0.5" stroke-linecap="round"/>
<path d="M96.1826 107.667C96.1826 104.83 97.7582 103.946 98.4494 104.147C99.765 104.521 100.401 113.143 100.544 116.414C97.8166 112.291 96.1826 109.819 96.1826 107.667Z" stroke="black" stroke-width="0.5" stroke-linecap="round"/>
<path d="M176.519 97.1541C174.974 94.8891 170.642 96.811 168.668 98.0551L165.837 121.477C169.955 124.695 174.331 114.013 176.519 110.667C178.706 107.321 178.449 99.9852 176.519 97.1541Z" fill="#FBEBE4" stroke="black" stroke-width="0.5"/>
<path d="M168.339 102.882C169.573 101.581 172.342 99.1386 173.543 99.7793C175.044 100.58 175.845 103.082 175.444 104.883" stroke="black" stroke-width="0.5" stroke-linecap="round"/>
<path d="M171.716 107.799C171.716 104.961 170.14 104.078 169.449 104.278C168.133 104.653 167.497 113.274 167.354 116.546C170.082 112.422 171.716 109.95 171.716 107.799Z" stroke="black" stroke-width="0.5" stroke-linecap="round"/>
<path d="M132.507 57.1952C118.16 57.1142 101.882 65.6434 99.0469 83.4648C95.9997 102.619 102.07 137.845 111.156 147.932C118.934 156.568 129.32 158.857 136.381 158.992H137.254C143.614 158.871 152.131 157.159 159.481 146.432C167.534 134.679 171.168 100.99 168.121 81.8359C165.286 64.0146 146.854 57.1142 132.507 57.1952Z" fill="#FBEBE4" stroke="black" stroke-width="0.5"/>
<path d="M122.738 137.28C122.738 137.28 130.1 139.593 134.837 139.593C139.575 139.593 147.002 137.28 147.002 137.28" stroke="black" stroke-width="0.5" stroke-linecap="round"/>
<path d="M129.341 141.742C129.341 141.742 132.783 142.869 134.941 142.869C137.098 142.869 140.39 141.742 140.39 141.742" stroke="black" stroke-width="0.5" stroke-linecap="round"/>
<path d="M125.62 93.8406L131.031 102.65V126.234C131.552 126.964 133.097 128.363 135.1 128.112" stroke="black" stroke-width="0.5" stroke-linecap="round"/>
<path d="M110.028 104.439C111.765 103.596 116.092 102.071 119.508 102.711C122.924 103.352 124.43 104.13 124.757 104.439" stroke="black" stroke-width="0.5" stroke-linecap="round"/>
<path d="M125.577 102.837C123.46 101.616 118.229 99.5407 114.246 101.006" stroke="black" stroke-width="0.2" stroke-linecap="round"/>
<path d="M122.303 105.24C122.303 106.64 121.024 107.775 119.447 107.775C117.869 107.775 116.775 106.65 116.591 105.24C116.467 104.298 116.683 103.171 117.318 102.706C117.811 102.345 119.557 102.852 120.247 102.852C121.824 102.852 122.303 103.841 122.303 105.24Z" fill="black"/>
<path d="M158.1 104.439C156.363 103.596 152.036 102.071 148.62 102.711C145.204 103.352 143.697 104.13 143.371 104.439" stroke="black" stroke-width="0.5" stroke-linecap="round"/>
<path d="M142.551 102.837C144.668 101.616 149.899 99.5407 153.882 101.006" stroke="black" stroke-width="0.2" stroke-linecap="round"/>
<path d="M145.825 105.24C145.825 106.64 147.104 107.775 148.681 107.775C150.258 107.775 151.353 106.65 151.537 105.24C151.661 104.298 151.445 103.171 150.81 102.706C150.316 102.345 148.571 102.852 147.881 102.852C146.303 102.852 145.825 103.841 145.825 105.24Z" fill="black"/>
<path d="M111.951 91.059C109.049 90.8618 106.941 95.4962 106.25 97.838C107.805 95.7421 110.008 95.743 111.951 95.1267C113.506 94.6336 122.706 96.0716 127.111 96.8523L126.334 93.1545C122.749 92.5381 114.854 91.2561 111.951 91.059Z" fill="black"/>
<path d="M156.178 91.059C159.02 90.8618 161.084 95.4962 161.761 97.838C160.238 95.7421 158.081 95.743 156.178 95.1267C154.655 94.6336 145.646 96.0716 141.331 96.8523L142.093 93.1545C145.603 92.5381 153.335 91.2561 156.178 91.059Z" fill="black"/>
<path d="M156.609 49.5193C144.779 38.9199 124.419 41.0156 115.34 48.5131C109.73 53.146 106.913 66.388 111.318 70.6099C115.722 74.8318 122.355 60.2366 129.696 72.4333C137.037 84.6299 153.08 83.2757 161.399 84.683C168.055 85.8088 169.01 93.1949 168.655 96.7472C168.62 100.867 169.234 105.616 171.964 91.6609C175.376 74.2166 171.395 62.7685 156.609 49.5193Z" fill="black" stroke="black" stroke-width="0.5"/>
<path d="M149.82 79.8264C140.385 78.6111 135.047 73.0828 133.409 69.9259C135.017 72.7851 141.028 77.6284 153.395 78.4862C165.761 79.344 168.673 84.2046 168.584 86.5278C168.227 81.6135 161.615 81.3454 149.82 79.8264Z" fill="white"/>
<path d="M116.985 52.1015C121.467 48.2041 128.903 43.227 142.618 45.7338" stroke="white" stroke-width="0.5" stroke-linecap="round"/>
<path d="M101.208 92.4446C102.609 85.1685 111.057 85.0968 113.529 80.8766C118.424 72.9229 116.521 60.5461 114.958 55.3519C113.853 48.48 97.5716 53.1973 95.3458 60.3996C92.9368 68.1948 95.3458 69.0039 93.1106 75.152C90.1662 83.2506 94.0276 92.0425 95.3458 95.1126C96.6641 98.1828 99.8066 99.7208 101.208 92.4446Z" fill="black" stroke="black" stroke-width="0.5"/>
<path d="M113.066 55.4638C111.349 54.296 106.572 53.5247 103.313 56.612" stroke="white" stroke-width="0.5" stroke-linecap="round"/>
<path opacity="0.5" d="M22.8145 106.006H38.8145V99.0399H39.8145V106.006H55.8145V99.0399H56.8145V106.006H72.8145V99.0399H73.8145V106.006H89.8145V99.0399H90.8145V106.006H106.814V99.0399H107.814V106.006H123.814V99.0399H124.814V106.006H140.814V99.0399H141.814V106.006H157.814V99.0399H158.814V106.006H165.152V107.006H158.814V123.006H165.152V124.006H158.814V140.006H165.152V141.006H158.814V157.006H165.152V158.006H158.814V269.04H157.814V158.006H141.814V269.04H140.814V158.006H124.814V269.04H123.814V158.006H107.814V269.04H106.814V158.006H90.8145V269.04H89.8145V158.006H73.8145V269.04H72.8145V158.006H56.8145V269.04H55.8145V158.006H39.8145V269.04H38.8145V158.006H22.8145V269.04H21.8145V158.006H-4.84766V157.006H21.8145V141.006H-4.84766V140.006H21.8145V124.006H-4.84766V123.006H21.8145V107.006H-4.84766V106.006H21.8145V99.0399H22.8145V106.006ZM141.814 141.006V157.006H157.814V141.006H141.814ZM22.8145 157.006H38.8145V141.006H22.8145V157.006ZM39.8145 157.006H55.8145V141.006H39.8145V157.006ZM56.8145 157.006H72.8145V141.006H56.8145V157.006ZM73.8145 157.006H89.8145V141.006H73.8145V157.006ZM90.8145 157.006H106.814V141.006H90.8145V157.006ZM107.814 157.006H123.814V141.006H107.814V157.006ZM124.814 157.006H140.814V141.006H124.814V157.006ZM141.814 124.006V140.006H157.814V124.006H141.814ZM22.8145 140.006H38.8145V124.006H22.8145V140.006ZM39.8145 140.006H55.8145V124.006H39.8145V140.006ZM56.8145 140.006H72.8145V124.006H56.8145V140.006ZM73.8145 140.006H89.8145V124.006H73.8145V140.006ZM90.8145 140.006H106.814V124.006H90.8145V140.006ZM107.814 140.006H123.814V124.006H107.814V140.006ZM124.814 140.006H140.814V124.006H124.814V140.006ZM141.814 107.006V123.006H157.814V107.006H141.814ZM22.8145 123.006H38.8145V107.006H22.8145V123.006ZM39.8145 123.006H55.8145V107.006H39.8145V123.006ZM56.8145 123.006H72.8145V107.006H56.8145V123.006ZM73.8145 123.006H89.8145V107.006H73.8145V123.006ZM90.8145 123.006H106.814V107.006H90.8145V123.006ZM107.814 123.006H123.814V107.006H107.814V123.006ZM124.814 123.006H140.814V107.006H124.814V123.006ZM165.152 90.0057H-4.84766V89.0057H165.152V90.0057ZM165.152 73.0057H-4.84766V72.0057H165.152V73.0057ZM165.152 56.0057H-4.84766V55.0057H165.152V56.0057ZM165.152 39.0057H-4.84766V38.0057H165.152V39.0057ZM165.152 22.0057H-4.84766V21.0057H165.152V22.0057Z" fill="url(#paint0_radial_807_1884)"/>
</g>
<g clip-path="url(#clip0_807_1884)">
<path d="M245.61 132.5C245.61 147.354 242.684 162.062 237 175.785C231.316 189.508 222.984 201.977 212.481 212.481C201.978 222.984 189.509 231.316 175.786 237C162.062 242.684 147.354 245.61 132.5 245.61C117.647 245.61 102.938 242.684 89.2151 237C75.492 231.316 63.0229 222.984 52.5197 212.481C42.0165 201.977 33.6849 189.508 28.0006 175.785C22.3163 162.062 19.3906 147.354 19.3906 132.5L132.5 132.5H245.61Z" fill="url(#paint1_linear_807_1884)"/>
</g>
<rect x="19.3906" y="148.659" width="226.22" height="3.23171" fill="url(#paint2_linear_807_1884)"/>
<circle cx="132.5" cy="132.5" r="131" stroke="#2B84B3" stroke-width="3"/>
<defs>
<radialGradient id="paint0_radial_807_1884" cx="0" cy="0" r="1" gradientUnits="userSpaceOnUse" gradientTransform="translate(80.1523 145.023) rotate(90) scale(124.017 85)">
<stop stop-color="#2B84B3" stop-opacity="0.16"/>
<stop offset="1" stop-color="#2B84B3" stop-opacity="0"/>
</radialGradient>
<linearGradient id="paint1_linear_807_1884" x1="132.5" y1="19.3903" x2="132.5" y2="245.61" gradientUnits="userSpaceOnUse">
<stop stop-color="#2B84B3" stop-opacity="0.16"/>
<stop offset="1" stop-color="#2B84B3" stop-opacity="0"/>
</linearGradient>
<linearGradient id="paint2_linear_807_1884" x1="245.61" y1="151.89" x2="19.3906" y2="151.89" gradientUnits="userSpaceOnUse">
<stop stop-color="#2B84B3" stop-opacity="0"/>
<stop offset="0.486833" stop-color="#2B84B3"/>
<stop offset="1" stop-color="#2B84B3" stop-opacity="0"/>
</linearGradient>
<clipPath id="clip0_807_1884">
<rect width="226.22" height="95.3354" fill="white" transform="translate(19.3906 150.274)"/>
</clipPath>
</defs>
</svg>
